# xmcd CD database file
#
# Track frame offsets:
#	150
#	25390
#	45255
#	66957
#	87710
#	110923
#	129303
#	146311
#	166718
#	184328
#	207658
#
# Disc length: 3133 seconds
#
# Revision: 7
# Processed by: cddbd v1.5.2PL0 Copyright (c) Steve Scherf et al.
# Submitted via: CDex 1.51
#
DISCID=9f0c3b0b
DTITLE=Sara Evans - Born To Fly
DYEAR=2000
DGENRE=Country
TTITLE0=Born To Fly
TTITLE1=Saints and Angels
TTITLE2=I Could Not Ask For More
TTITLE3=I Keep Looking
TTITLE4=I Learned That From You
TTITLE5=Let's Dance
TTITLE6=Why Should I Care
TTITLE7=Four-Thirty
TTITLE8=Show Me The Way To Your Heart
TTITLE9=You Don't
TTITLE10=Every Little Kiss
EXTD=YEAR: 2000
EXTT0=
EXTT1=
EXTT2=
EXTT3=
EXTT4=
EXTT5=
EXTT6=
EXTT7=
EXTT8=
EXTT9=
EXTT10=
PLAYORDER=
